<?xml version="1.0" encoding="UTF-8"?>
<!DOCTYPE svg PUBLIC "-//W3C//DTD SVG 1.1//EN" "http://www.w3.org/Graphics/SVG/1.1/DTD/svg11.dtd">
<svg xmlns="http://www.w3.org/2000/svg" version="1.1" width="1864px" height="1169px" style="shape-rendering:geometricPrecision; text-rendering:geometricPrecision; image-rendering:optimizeQuality; fill-rule:evenodd; clip-rule:evenodd" xmlns:xlink="http://www.w3.org/1999/xlink">
<g><path style="opacity:0.999" fill="#fefefe" d="M -0.5,-0.5 C 620.833,-0.5 1242.17,-0.5 1863.5,-0.5C 1863.5,389.167 1863.5,778.833 1863.5,1168.5C 1242.17,1168.5 620.833,1168.5 -0.5,1168.5C -0.5,778.833 -0.5,389.167 -0.5,-0.5 Z"/></g>
<g><path style="opacity:1" fill="#1b1b1b" d="M 1411.5,263.5 C 1419.41,261.362 1427.08,258.529 1434.5,255C 1435.82,254.184 1436.49,253.017 1436.5,251.5C 1439.03,247.811 1442.36,244.978 1446.5,243C 1455.46,240.732 1461.63,243.899 1465,252.5C 1465.67,258.167 1465.67,263.833 1465,269.5C 1462.17,277.994 1460.17,286.66 1459,295.5C 1452.81,307.043 1446.81,318.709 1441,330.5C 1435.3,335.865 1429.97,341.531 1425,347.5C 1413.1,363.457 1400.6,378.957 1387.5,394C 1394.07,392.071 1400.74,390.071 1407.5,388C 1434.47,383.404 1461.47,383.404 1488.5,388C 1499.38,389.843 1509.21,394.01 1518,400.5C 1522.82,406.83 1523.82,413.83 1521,421.5C 1515.36,435.958 1506.86,448.458 1495.5,459C 1484.53,468.152 1473.19,476.818 1461.5,485C 1454.83,491 1448.17,497 1441.5,503C 1431.12,508.572 1420.46,513.572 1409.5,518C 1407.67,519.167 1406.17,520.667 1405,522.5C 1406.35,544.817 1407.85,567.15 1409.5,589.5C 1409.61,602.788 1407.78,615.788 1404,628.5C 1402.67,630.5 1401.33,632.5 1400,634.5C 1399.67,640.833 1399.33,647.167 1399,653.5C 1396.91,668.355 1393.91,683.022 1390,697.5C 1389.67,702.167 1389.33,706.833 1389,711.5C 1388.11,714.952 1386.44,717.952 1384,720.5C 1382.32,728.907 1380.32,737.24 1378,745.5C 1375.92,749.336 1373.58,753.003 1371,756.5C 1366.76,771.114 1361.76,785.447 1356,799.5C 1354.06,803.11 1351.72,806.443 1349,809.5C 1348.12,820.831 1343.79,830.498 1336,838.5C 1330.6,850.981 1323.93,862.648 1316,873.5C 1312.78,884.052 1307.11,893.052 1299,900.5C 1291.4,912.695 1283.07,924.362 1274,935.5C 1262.42,948.102 1248.25,955.936 1231.5,959C 1226.11,963.362 1220.11,966.695 1213.5,969C 1199.21,973.821 1184.88,978.488 1170.5,983C 1164.16,987.503 1157.5,991.503 1150.5,995C 1142.76,997.469 1135.09,1000.14 1127.5,1003C 1123.55,1005.28 1119.89,1007.95 1116.5,1011C 1105.08,1015.21 1094.08,1020.21 1083.5,1026C 1079.5,1026.33 1075.5,1026.67 1071.5,1027C 1058.41,1029.39 1045.41,1032.06 1032.5,1035C 1027.31,1035.64 1022.15,1035.47 1017,1034.5C 1008.36,1036.89 999.531,1038.05 990.5,1038C 975.85,1042.6 960.85,1045.26 945.5,1046C 904.509,1047.37 863.509,1048.04 822.5,1048C 805.794,1038.33 787.794,1034.66 768.5,1037C 761.063,1036.78 754.396,1034.45 748.5,1030C 743.167,1029.67 737.833,1029.33 732.5,1029C 729.624,1028.56 726.957,1027.56 724.5,1026C 716.079,1025.9 707.745,1025.07 699.5,1023.5C 696.188,1024.38 692.855,1024.55 689.5,1024C 679.965,1021.97 670.632,1019.3 661.5,1016C 651.659,1015.37 641.993,1013.7 632.5,1011C 620.258,1005.88 608.258,1000.21 596.5,994C 591.882,991.05 587.548,987.716 583.5,984C 578.674,981.754 574.008,979.254 569.5,976.5C 567.52,974.205 566.353,971.539 566,968.5C 556.471,962.975 548.137,955.975 541,947.5C 536.903,940.31 536.57,932.976 540,925.5C 546.237,915.131 555.404,910.131 567.5,910.5C 582.824,911.526 598.158,911.693 613.5,911C 605.361,907.765 597.694,903.765 590.5,899C 569.607,894.609 548.94,889.609 528.5,884C 525.661,882.08 522.661,880.413 519.5,879C 508.456,876.156 497.456,873.156 486.5,870C 480.147,866.157 474.147,861.823 468.5,857C 455.335,849.585 442.335,841.919 429.5,834C 422.54,828.708 415.873,823.042 409.5,817C 398.503,811.17 387.836,804.837 377.5,798C 370.49,790.802 364.323,782.969 359,774.5C 352.081,759.166 356.581,748.666 372.5,743C 380.672,740.601 389.006,739.934 397.5,741C 405.347,742.293 413.014,743.96 420.5,746C 410.459,737.755 404.126,727.255 401.5,714.5C 400.525,708.191 397.858,702.858 393.5,698.5C 392.28,696.718 391.614,694.718 391.5,692.5C 390.924,686.515 390.424,680.515 390,674.5C 387.509,664.12 385.342,653.787 383.5,643.5C 383.992,636.465 382.159,630.132 378,624.5C 376.663,613.849 374.497,603.516 371.5,593.5C 371.575,589.445 372.075,585.445 373,581.5C 375.744,574.603 378.077,567.603 380,560.5C 380.286,543.817 380.953,527.15 382,510.5C 387.166,499 395.999,494.5 408.5,497C 427.604,502.549 444.271,512.216 458.5,526C 460.365,527.301 462.365,527.635 464.5,527C 456.369,514.577 448.869,501.744 442,488.5C 436.461,483.401 433.294,477.068 432.5,469.5C 427.38,469.524 423.213,467.524 420,463.5C 414.905,452.895 410.571,441.895 407,430.5C 403.73,424.96 400.73,419.293 398,413.5C 397.667,406.5 397.333,399.5 397,392.5C 395.257,389.043 394.257,385.377 394,381.5C 393.667,373.833 393.333,366.167 393,358.5C 392.066,354.363 390.732,350.363 389,346.5C 388.254,341.958 388.421,337.458 389.5,333C 386.319,319.028 384.486,304.862 384,290.5C 379.972,274.959 378.138,259.126 378.5,243C 378.9,231.801 379.733,220.634 381,209.5C 385.969,200.392 391.802,191.892 398.5,184C 403.998,181.035 409.665,180.702 415.5,183C 419.042,184.02 422.542,185.187 426,186.5C 428.489,184.681 430.989,182.848 433.5,181C 438.768,179.932 443.768,180.599 448.5,183C 456.5,191 464.5,199 472.5,207C 482.703,210.068 492.703,213.735 502.5,218C 513.324,226.584 524.991,233.917 537.5,240C 543.544,244.376 548.544,249.71 552.5,256C 557.008,258.753 561.341,261.753 565.5,265C 573.197,273.031 581.197,280.698 589.5,288C 641.215,314.54 687.215,348.874 727.5,391C 745.197,404.185 762.53,417.851 779.5,432C 794.773,439.645 809.94,447.479 825,455.5C 825.124,443.092 826.124,430.759 828,418.5C 830.796,405.517 833.463,392.517 836,379.5C 838.802,367.095 842.802,355.095 848,343.5C 847.396,336.178 849.063,329.512 853,323.5C 854.999,314.178 856.999,304.845 859,295.5C 860.279,290.275 862.612,285.609 866,281.5C 867.249,269.005 872.249,258.338 881,249.5C 888.159,232.015 898.659,216.848 912.5,204C 920.049,199.053 927.049,193.386 933.5,187C 941.949,183.578 950.282,179.912 958.5,176C 970.083,174.115 981.749,173.115 993.5,173C 999.29,170.719 1005.29,169.386 1011.5,169C 1024.17,168.333 1036.83,168.333 1049.5,169C 1054.72,169.554 1059.72,170.887 1064.5,173C 1075.83,173.333 1087.17,173.667 1098.5,174C 1115.25,177.92 1132.25,180.587 1149.5,182C 1151.5,182.667 1153.5,183.333 1155.5,184C 1166.88,191.58 1179.22,197.246 1192.5,201C 1203.85,205.26 1213.35,212.093 1221,221.5C 1227.28,231.043 1234.28,240.043 1242,248.5C 1250.72,265.835 1256.56,284.169 1259.5,303.5C 1266.19,304.888 1272.86,304.721 1279.5,303C 1289.47,300.122 1299.13,296.455 1308.5,292C 1313.83,291.333 1319.17,290.667 1324.5,290C 1331.52,285.326 1339.19,281.993 1347.5,280C 1369.03,275.118 1390.36,269.618 1411.5,263.5 Z"/></g>
<g><path style="opacity:1" fill="#4184f3" d="M 677.5,996.5 C 676.713,994.896 675.38,994.229 673.5,994.5C 668.487,992.051 663.153,991.051 657.5,991.5C 658.586,985.886 656.92,981.386 652.5,978C 630.505,970.17 608.839,961.503 587.5,952C 578.101,947.977 569.768,942.477 562.5,935.5C 582.134,935.495 601.8,935.328 621.5,935C 629.138,934.024 636.805,933.357 644.5,933C 649.822,932.42 654.989,931.253 660,929.5C 668.367,933.297 677.034,934.297 686,932.5C 690.151,933.386 694.318,934.22 698.5,935C 706.918,938.473 715.585,941.139 724.5,943C 742.546,944.115 760.546,945.782 778.5,948C 802.086,956.814 826.42,961.981 851.5,963.5C 864.822,965.997 870.989,960.663 870,947.5C 868.413,944.244 865.913,942.077 862.5,941C 850.753,940.326 839.086,938.993 827.5,937C 809.491,932.331 791.491,927.665 773.5,923C 757.803,922.018 742.136,920.685 726.5,919C 711.61,913.444 696.277,909.777 680.5,908C 679.167,907 677.833,906 676.5,905C 661.394,902.632 646.728,898.632 632.5,893C 620.197,887.847 608.197,882.18 596.5,876C 584.5,873.333 572.5,870.667 560.5,868C 556.888,866.861 553.554,865.194 550.5,863C 546.227,861.97 541.894,861.303 537.5,861C 524.23,855.466 510.563,851.132 496.5,848C 490.5,843.667 484.5,839.333 478.5,835C 466.001,827.918 453.668,820.585 441.5,813C 434.748,806.244 427.414,800.244 419.5,795C 410.833,790 402.167,785 393.5,780C 389.257,775.592 385.591,770.759 382.5,765.5C 387.131,764.338 391.798,764.172 396.5,765C 402.877,766.511 409.21,768.177 415.5,770C 422.757,773.6 429.757,777.6 436.5,782C 444.898,784.968 453.565,786.634 462.5,787C 482.081,797.126 501.414,807.792 520.5,819C 527.984,823.384 535.984,826.384 544.5,828C 564.88,829.545 585.214,831.545 605.5,834C 618.78,839.038 632.447,842.538 646.5,844.5C 658.664,842.509 662.164,835.842 657,824.5C 656.097,823.299 654.931,822.465 653.5,822C 637.864,819.234 622.531,815.234 607.5,810C 585.782,807.978 564.115,805.645 542.5,803C 523.511,793.174 504.845,782.841 486.5,772C 481.113,769.137 475.447,767.137 469.5,766C 455.667,750.167 441.833,734.333 428,718.5C 425.667,711.167 423.333,703.833 421,696.5C 419.503,692.835 417.503,689.502 415,686.5C 414.667,680.5 414.333,674.5 414,668.5C 413.439,666.275 412.439,664.275 411,662.5C 410.667,657.5 410.333,652.5 410,647.5C 409.333,646.167 408.667,644.833 408,643.5C 407.517,637.086 406.517,630.752 405,624.5C 404.108,621.048 402.442,618.048 400,615.5C 399.667,610.5 399.333,605.5 399,600.5C 397.656,597.329 396.49,594.162 395.5,591C 398.331,582.506 401.165,574.006 404,565.5C 404.167,550.489 404.667,535.489 405.5,520.5C 420.484,525.99 433.484,534.49 444.5,546C 449.102,548.867 454.102,550.534 459.5,551C 465.984,556.411 472.984,561.078 480.5,565C 482.81,565.497 485.143,565.663 487.5,565.5C 487.784,568.852 488.95,571.852 491,574.5C 499.02,582.422 507.854,589.255 517.5,595C 536.318,613.745 558.318,627.412 583.5,636C 588.5,636.667 593.5,636.667 598.5,636C 604.908,632.677 607.075,627.511 605,620.5C 603.878,618.376 602.378,616.543 600.5,615C 588.352,613.395 577.019,609.395 566.5,603C 553.02,594.859 540.686,585.193 529.5,574C 524.833,571 520.167,568 515.5,565C 512.011,560.23 508.344,555.563 504.5,551C 501.937,549.921 499.271,549.421 496.5,549.5C 496.861,542.02 496.028,534.686 494,527.5C 490.333,522.5 486.667,517.5 483,512.5C 474.837,497.504 466.171,482.837 457,468.5C 454.933,462.067 453.1,455.567 451.5,449C 457.261,439.048 454.927,431.715 444.5,427C 439.978,426.321 435.644,426.654 431.5,428C 429.534,420.902 426.368,414.402 422,408.5C 421.667,402.167 421.333,395.833 421,389.5C 417.218,377.161 415.551,364.495 416,351.5C 415.021,347.434 413.854,343.434 412.5,339.5C 414.203,333.273 413.703,327.273 411,321.5C 409.158,308.22 407.825,294.886 407,281.5C 405.084,278.102 404.084,274.435 404,270.5C 401.385,251.992 402.052,233.659 406,215.5C 407.331,212.166 409.165,209.166 411.5,206.5C 417.867,209.492 423.534,208.492 428.5,203.5C 431.717,204.972 435.051,206.138 438.5,207C 444.833,213.333 451.167,219.667 457.5,226C 468.216,231.094 479.216,235.427 490.5,239C 492.539,241.374 494.872,243.374 497.5,245C 506.833,250.333 516.167,255.667 525.5,261C 529.167,265.333 532.833,269.667 536.5,274C 540.5,276.667 544.5,279.333 548.5,282C 556.53,290.364 564.863,298.364 573.5,306C 602.437,320.963 629.77,338.297 655.5,358C 676.922,375.731 697.589,394.398 717.5,414C 733.559,425.035 748.892,437.035 763.5,450C 767.666,452.917 771.999,455.584 776.5,458C 790.462,464.096 804.128,470.763 817.5,478C 824.489,480.33 831.489,482.663 838.5,485C 850.883,486.284 856.049,480.784 854,468.5C 851.777,466.277 850.444,463.611 850,460.5C 849.597,423.517 856.263,387.85 870,353.5C 874.775,336.732 878.775,319.732 882,302.5C 883.565,298.6 885.565,294.934 888,291.5C 889.667,285.167 891.333,278.833 893,272.5C 901.425,262.665 908.092,251.665 913,239.5C 915.422,235.656 918.089,231.99 921,228.5C 929.593,221.452 938.093,214.285 946.5,207C 953.436,204.936 960.103,202.27 966.5,199C 976.463,197.871 986.463,197.204 996.5,197C 1002.03,195.046 1007.69,193.713 1013.5,193C 1025.5,192.333 1037.5,192.333 1049.5,193C 1054.01,194.836 1058.68,196.17 1063.5,197C 1074.5,197.333 1085.5,197.667 1096.5,198C 1111.57,201.861 1126.9,204.194 1142.5,205C 1147.58,208.401 1152.91,211.401 1158.5,214C 1169.66,217.941 1180.66,222.275 1191.5,227C 1195.98,230.405 1200.14,234.238 1204,238.5C 1209.18,246.195 1214.85,253.528 1221,260.5C 1222.9,266.891 1225.57,272.891 1229,278.5C 1232.07,292.779 1236.07,306.779 1241,320.5C 1242.94,323.106 1245.44,324.939 1248.5,326C 1259.11,328.685 1269.77,329.019 1280.5,327C 1292.52,323.994 1304.18,319.994 1315.5,315C 1321.97,314.836 1328.3,313.836 1334.5,312C 1339.28,308.279 1344.61,305.612 1350.5,304C 1379.81,297.092 1408.81,289.425 1437.5,281C 1432.72,292.673 1427.55,304.173 1422,315.5C 1405.25,334.25 1389.25,353.584 1374,373.5C 1361.8,384.026 1351.46,396.026 1343,409.5C 1342.67,422.163 1348.84,427.33 1361.5,425C 1380.88,421.404 1399.88,416.404 1418.5,410C 1439.88,407.753 1461.21,408.087 1482.5,411C 1487.81,412.074 1492.81,413.908 1497.5,416.5C 1492.56,426.609 1485.9,435.442 1477.5,443C 1459.43,456.041 1442.1,470.041 1425.5,485C 1414.91,489.085 1404.58,493.752 1394.5,499C 1388.87,503.629 1384.37,509.129 1381,515.5C 1378.06,524.829 1375.22,534.162 1372.5,543.5C 1373.29,549.794 1376.79,553.794 1383,555.5C 1386.12,575.867 1386.12,596.201 1383,616.5C 1380.27,620.241 1377.93,624.241 1376,628.5C 1374.58,646.175 1372.58,663.842 1370,681.5C 1369.23,685.049 1367.89,688.382 1366,691.5C 1366.66,699.471 1365,706.805 1361,713.5C 1359.3,720.091 1357.96,726.758 1357,733.5C 1353.6,738.577 1350.6,743.911 1348,749.5C 1344.4,761.637 1340.4,773.637 1336,785.5C 1333,790.5 1330,795.5 1327,800.5C 1325.67,805.833 1324.33,811.167 1323,816.5C 1320.67,819.5 1318.33,822.5 1316,825.5C 1311.27,835.292 1306.27,844.959 1301,854.5C 1295.25,859.987 1291.59,866.654 1290,874.5C 1279.89,886.604 1270.56,899.271 1262,912.5C 1258.53,916.967 1254.7,921.133 1250.5,925C 1246.87,927.528 1242.87,929.195 1238.5,930C 1237.17,931.333 1235.83,932.667 1234.5,934C 1225.68,934.824 1218.01,938.157 1211.5,944C 1195.65,949.729 1179.65,955.062 1163.5,960C 1154.91,964.266 1146.58,968.933 1138.5,974C 1125.85,976.662 1114.51,981.995 1104.5,990C 1095.97,993.286 1087.63,996.953 1079.5,1001C 1075.83,1001.33 1072.17,1001.67 1068.5,1002C 1065.15,1004.09 1061.49,1005.42 1057.5,1006C 1047.36,1007.03 1037.36,1008.7 1027.5,1011C 1022.65,1011.53 1017.82,1011.37 1013,1010.5C 1009.32,1010.63 1005.82,1011.46 1002.5,1013C 993.018,1012.41 984.018,1014.08 975.5,1018C 961.304,1020.78 946.971,1022.45 932.5,1023C 897.82,1023.42 863.153,1023.75 828.5,1024C 809.262,1014.44 788.929,1010.78 767.5,1013C 764.52,1011.37 761.52,1009.7 758.5,1008C 751.897,1006.84 745.23,1006.17 738.5,1006C 735.283,1004.36 731.95,1003.03 728.5,1002C 711.43,1000.81 694.43,998.976 677.5,996.5 Z"/></g>
<g><path style="opacity:1" fill="#1a1a1b" d="M 1009.5,196.5 C 1013.06,196.408 1016.39,197.241 1019.5,199C 1034.51,211.515 1051.18,221.515 1069.5,229C 1105.53,244.684 1141.53,260.351 1177.5,276C 1189.79,287.967 1202.96,298.8 1217,308.5C 1221.07,315.979 1219.57,322.145 1212.5,327C 1203.59,328.051 1195.92,325.384 1189.5,319C 1186.5,318 1183.5,317 1180.5,316C 1178.13,313.294 1175.46,310.961 1172.5,309C 1162.42,304.861 1152.42,300.528 1142.5,296C 1133.43,289.936 1124.1,284.269 1114.5,279C 1102.95,274.928 1091.28,271.261 1079.5,268C 1068.02,262.179 1057.36,255.179 1047.5,247C 1042.54,245.599 1037.88,243.599 1033.5,241C 1032.5,239.333 1031.5,237.667 1030.5,236C 1021.11,230.612 1012.28,224.446 1004,217.5C 997.885,208.152 999.719,201.152 1009.5,196.5 Z"/></g>
<g><path style="opacity:1" fill="#4784ed" d="M 1436.5,251.5 C 1436.49,253.017 1435.82,254.184 1434.5,255C 1427.08,258.529 1419.41,261.362 1411.5,263.5C 1416.76,259.195 1422.42,255.361 1428.5,252C 1431.15,251.503 1433.81,251.336 1436.5,251.5 Z"/></g>
<g><path style="opacity:1" fill="#1a1a1b" d="M 1146.5,313.5 C 1158.07,312.744 1167.91,316.411 1176,324.5C 1179.81,331.171 1180.47,338.171 1178,345.5C 1174.24,353.553 1168.74,360.053 1161.5,365C 1160.41,367.172 1159.08,369.172 1157.5,371C 1145.53,375.139 1133.2,377.139 1120.5,377C 1110.36,372.571 1105.36,364.737 1105.5,353.5C 1108.24,336.582 1117.57,324.749 1133.5,318C 1137.93,316.43 1142.26,314.93 1146.5,313.5 Z"/></g>
<g><path style="opacity:1" fill="#4b85ea" d="M 383.5,643.5 C 385.342,653.787 387.509,664.12 390,674.5C 390.424,680.515 390.924,686.515 391.5,692.5C 386.028,676.778 383.361,660.445 383.5,643.5 Z"/></g>
<g><path style="opacity:1" fill="#4880e0" d="M 393.5,698.5 C 397.858,702.858 400.525,708.191 401.5,714.5C 397.793,709.753 395.126,704.419 393.5,698.5 Z"/></g>
<g><path style="opacity:1" fill="#8c939f" d="M 673.5,994.5 C 675.38,994.229 676.713,994.896 677.5,996.5C 675.62,996.771 674.287,996.104 673.5,994.5 Z"/></g>
</svg>
